# xmcd CD database file
#
# Track frame offsets:
#	150
#	8865
#	23692
#	36691
#	44497
#	52954
#	66077
#	71775
#	81762
#	91999
#	99159
#	116224
#	123285
#	137237
#	153199
#
# Disc length: 2229 seconds
#
# Revision: 5
# Processed by: cddbd v1.5.2PL0 Copyright (c) Steve Scherf et al.
# Submitted via: CDex 2.12
#
DISCID=c808b30f
DTITLE=Alan Jackson - Precious Memories
DYEAR=2008
DGENRE=Gospel
TTITLE0=Blessed Assurance
TTITLE1=Softly And Tenderly
TTITLE2=I Love To Tell The Story
TTITLE3=When We All Get To Heaven
TTITLE4='Tis So Sweet To Trust In Jesus
TTITLE5=In The Garden
TTITLE6=Are You Washed In The Blood
TTITLE7=I'll Fly Away
TTITLE8=What A Friend We Have In Jesus
TTITLE9=Standing On The Promises
TTITLE10=Turn Your Eyes Upon Jesus
TTITLE11=Leaning On The Everlasting Arms
TTITLE12=The Old Rugged Cross
TTITLE13=How Great Thou Art
TTITLE14=I Want To Stroll Over Heaven With You
EXTD=YEAR: 2008
EXTT0=
EXTT1=
EXTT2=
EXTT3=
EXTT4=
EXTT5=
EXTT6=
EXTT7=
EXTT8=
EXTT9=
EXTT10=
EXTT11=
EXTT12=
EXTT13=
EXTT14=
PLAYORDER=
